# xmcd
#
# Track frame offsets: 
#        150
#        14915
#        28172
#        44297
#        57332
#        69230
#        83045
#        103140
#        118825
#        133720
#        149230
#        166192
#        181475
#        199150
#        215347
#        226915
#
# Disc length: 3218 seconds
#
# Revision: 0
# Processed by: cddbd v1.5.1PL2 Copyright (c) Steve Scherf et al.
# Submitted via: ExactAudioCopy v0.95b4
#
DISCID=f00c9010
DTITLE=Second To None - Rosanne Cash
DYEAR=1987
DGENRE=Country
TTITLE0=Seaven Year Ache
TTITLE1=Man Smart, Woman Smarter
TTITLE2=Somewhere In the Stars
TTITLE3=My Old Man
TTITLE4=Big River (with Bobby Dare)
TTITLE5=I Wonder
TTITLE6=Blue Moon With Heartache
TTITLE7=Never Be You
TTITLE8=I Don't Know Why You Don't Want Me
TTITLE9=Ain't No Money
TTITLE10=Second To None
TTITLE11=No Memories Hangin' 'Round
TTITLE12=This Has Happened Before
TTITLE13=Hold On
TTITLE14=You Don't Have Very Far To Go
TTITLE15=My Baby Thinks He's A Train
EXTD=
EXTT0=
EXTT1=
EXTT2=
EXTT3=
EXTT4=
EXTT5=
EXTT6=
EXTT7=
EXTT8=
EXTT9=
EXTT10=
EXTT11=
EXTT12=
EXTT13=
EXTT14=
EXTT15=
PLAYORDER=
